<svg width="64" height="51" viewBox="0 0 64 51" fill="none" xmlns="http://www.w3.org/2000/svg">
<path d="M22.7777 25.7129C15.8441 25.7129 10.2777 20.1465 10.2777 13.2129C10.2777 6.37695 15.8441 0.712891 22.7777 0.712891C29.6137 0.712891 35.2777 6.37695 35.2777 13.2129C35.2777 20.1465 29.6137 25.7129 22.7777 25.7129ZM32.1527 31.9629V47.5879C32.1527 48.7598 32.4457 49.834 32.934 50.7129H5.59021C2.9535 50.7129 0.902714 48.6621 0.902714 46.0254V42.0215C0.902714 34.7949 6.76209 28.9355 13.9887 28.8379H15.6488C17.7972 29.9121 20.2387 30.4004 22.7777 30.4004C25.3168 30.4004 27.6605 29.9121 29.809 28.8379H31.4691C31.9574 28.8379 32.4457 28.9355 32.934 29.0332C32.4457 29.9121 32.1527 30.8887 32.1527 31.9629ZM60.2777 28.8379C61.9379 28.8379 63.4027 30.3027 63.4027 31.9629V47.5879C63.4027 49.3457 61.9379 50.7129 60.2777 50.7129H38.4027C36.6449 50.7129 35.2777 49.3457 35.2777 47.5879V31.9629C35.2777 30.3027 36.6449 28.8379 38.4027 28.8379H41.5277V21.0254C41.5277 16.7285 44.9457 13.2129 49.3402 13.2129C53.6371 13.2129 57.1527 16.7285 57.1527 21.0254V28.8379H60.2777ZM49.3402 42.9004C51.0004 42.9004 52.4652 41.5332 52.4652 39.7754C52.4652 38.1152 51.0004 36.6504 49.3402 36.6504C47.5824 36.6504 46.2152 38.1152 46.2152 39.7754C46.2152 41.5332 47.5824 42.9004 49.3402 42.9004ZM52.4652 28.8379V21.0254C52.4652 19.3652 51.0004 17.9004 49.3402 17.9004C47.5824 17.9004 46.2152 19.3652 46.2152 21.0254V28.8379H52.4652Z" fill="#0A0A60"/>
</svg>
