<svg width="16" height="17" viewBox="0 0 16 17" fill="none" xmlns="http://www.w3.org/2000/svg">
<g clip-path="url(#clip0_10013_18593)">
<path d="M9.68661 6.38579L6.31328 9.75912C5.87995 9.32579 5.61328 8.73246 5.61328 8.07246C5.61328 6.75246 6.67995 5.68579 7.99995 5.68579C8.65995 5.68579 9.25328 5.95246 9.68661 6.38579Z" stroke="#0A0A60" stroke-linecap="round" stroke-linejoin="round"/>
<path d="M11.8799 3.9192C10.7132 3.0392 9.3799 2.5592 7.9999 2.5592C5.64656 2.5592 3.45323 3.94587 1.92656 6.34587C1.32656 7.28587 1.32656 8.86587 1.92656 9.80587C2.45323 10.6325 3.06656 11.3459 3.73323 11.9192" stroke="#0A0A60" stroke-linecap="round" stroke-linejoin="round"/>
<path d="M5.61328 13.0925C6.37328 13.4125 7.17995 13.5858 7.99995 13.5858C10.3533 13.5858 12.5466 12.1991 14.0733 9.79913C14.6733 8.85913 14.6733 7.27913 14.0733 6.33913C13.8533 5.99246 13.6133 5.6658 13.3666 5.35913" stroke="#0A0A60" stroke-linecap="round" stroke-linejoin="round"/>
<path d="M10.3409 8.53918C10.1676 9.47918 9.40094 10.2459 8.46094 10.4192" stroke="#0A0A60" stroke-linecap="round" stroke-linejoin="round"/>
<path d="M6.31398 9.75916L1.33398 14.7392" stroke="#0A0A60" stroke-linecap="round" stroke-linejoin="round"/>
<path d="M14.6675 1.40588L9.6875 6.38588" stroke="#0A0A60" stroke-linecap="round" stroke-linejoin="round"/>
</g>
<defs>
<clipPath id="clip0_10013_18593">
<rect width="16" height="16" fill="white" transform="translate(0 0.0725098)"/>
</clipPath>
</defs>
</svg>
