<svg width="46" height="46" viewBox="0 0 46 46" fill="none" xmlns="http://www.w3.org/2000/svg">
<rect x="0.5" y="0.0725098" width="45" height="45" rx="15" fill="#0A0A60"/>
<g clip-path="url(#clip0_10013_18598)">
<path d="M32.7392 22.1425C32.6892 21.6325 32.2592 21.2525 31.7492 21.2525H24.1992C23.6492 21.2525 23.1992 21.7025 23.1992 22.2525V23.9625C23.1992 24.5125 23.6492 24.9625 24.1992 24.9625H28.7092C28.5992 25.8825 27.9992 27.2725 26.6692 28.2025C25.8192 28.7925 24.6892 29.2025 23.1992 29.2025C23.1292 29.2025 23.0692 29.2025 22.9992 29.1925C20.4492 29.1125 18.2892 27.4025 17.5092 25.0525C17.2992 24.4225 17.1792 23.7625 17.1792 23.0725C17.1792 22.3825 17.2992 21.7125 17.4992 21.0925C17.5592 20.9125 17.6292 20.7325 17.7092 20.5525C18.6292 18.4825 20.6392 17.0225 22.9992 16.9525C23.0592 16.9425 23.1292 16.9425 23.1992 16.9425C24.6292 16.9425 25.6992 17.4125 26.4492 17.9325C26.8392 18.2025 27.3592 18.1425 27.6992 17.8125L29.0892 16.4525C29.5292 16.0225 29.4892 15.2925 28.9892 14.9325C27.3992 13.7625 25.4592 13.0725 23.1992 13.0725C23.1292 13.0725 23.0692 13.0725 22.9992 13.0825C19.1692 13.1525 15.8792 15.3725 14.2692 18.5825C13.5892 19.9425 13.1992 21.4625 13.1992 23.0725C13.1992 24.6825 13.5892 26.2025 14.2692 27.5625H14.2792C15.8892 30.7725 19.1792 32.9925 22.9992 33.0625C23.0692 33.0725 23.1292 33.0725 23.1992 33.0725C25.8992 33.0725 28.1692 32.1825 29.8192 30.6525C31.7092 28.9025 32.7992 26.3425 32.7992 23.2925C32.7992 22.8625 32.7792 22.4925 32.7392 22.1425Z" fill="white"/>
</g>
<defs>
<clipPath id="clip0_10013_18598">
<rect width="24" height="24" fill="white" transform="translate(11.5 11.0725)"/>
</clipPath>
</defs>
</svg>
