<svg width="102" height="22" viewBox="0 0 102 22" fill="none" xmlns="http://www.w3.org/2000/svg">
<path d="M16.48 21.5165L15.68 19.5965C15.2 20.0125 14.688 20.3645 14.112 20.6525C13.12 21.1645 11.712 21.6765 9.92 21.6765C4.448 21.6765 0 17.1965 0 11.4365C0 5.67648 4.448 1.19648 9.92 1.19648C14.72 1.19648 18.08 4.52448 19.04 8.23648L14.24 8.55648C13.728 7.11648 12.32 5.67648 9.92 5.67648C7.008 5.67648 4.64 8.10848 4.64 11.4365C4.64 14.7645 7.008 17.1965 9.92 17.1965C12.512 17.1965 13.888 15.7565 14.4 14.4765H9.92V10.6365H19.68V21.5165H16.48Z" fill="#0A0A60"/>
<path d="M22.89 21.5165V6.79648H27.21V21.5165H22.89ZM22.73 2.79648C22.73 1.51649 23.85 0.396484 25.13 0.396484C26.41 0.396484 27.53 1.51649 27.53 2.79648C27.53 4.07648 26.41 5.19648 25.13 5.19648C23.85 5.19648 22.73 4.07648 22.73 2.79648Z" fill="#0A0A60"/>
<path d="M31.3813 21.5165V11.4365H29.4613V7.43648H31.3813V6.63648C31.3813 3.08448 33.3013 1.19648 36.6613 1.19648C37.2692 1.19648 37.7812 1.26048 38.1653 1.35648L38.7412 1.51649V5.35649L38.4212 5.29248C38.1973 5.26048 37.9733 5.19648 37.6213 5.19648C36.5013 5.19648 35.7012 5.99648 35.7012 7.27648V7.43648H38.7412V11.4365H35.7012V21.5165H31.3813Z" fill="#0A0A60"/>
<path d="M42.42 16.2365V10.7965H40.18V7.11648H41.3C42.484 7.11648 43.06 6.54048 43.06 5.35649V3.27648H46.74V6.79648H49.78V10.7965H46.74V15.5965C46.74 16.8765 47.54 17.6765 48.66 17.6765C49.012 17.6765 49.236 17.6445 49.46 17.6125L49.78 17.5165V21.3565C49.62 21.4205 49.428 21.4845 49.204 21.5165C48.788 21.6125 48.276 21.6765 47.7 21.6765C44.34 21.6765 42.42 19.7885 42.42 16.2365Z" fill="#0A0A60"/>
<path d="M52.8275 21.5165V1.35648H57.1475V8.23648C57.4355 7.94848 57.7555 7.66048 58.1395 7.43648C58.8115 7.05248 59.8675 6.63648 61.3075 6.63648C64.5075 6.63648 66.9075 9.03648 66.9075 12.8765V21.5165H62.5875V13.6765C62.5875 11.7565 61.4995 10.6365 59.8675 10.6365C58.2355 10.6365 57.1475 11.7565 57.1475 13.6765V21.5165H52.8275Z" fill="#0A0A60"/>
<path d="M69.7925 15.4365V6.79648H74.1125V14.6365C74.1125 16.5565 75.2005 17.6765 76.8325 17.6765C78.4645 17.6765 79.5525 16.5565 79.5525 14.6365V6.79648H83.8725V21.5165H80.6725L80.0325 20.0765C79.6805 20.3645 79.2645 20.6525 78.8165 20.8765C78.0485 21.2925 76.9925 21.6765 75.7125 21.6765C72.2245 21.6765 69.7925 19.2765 69.7925 15.4365Z" fill="#0A0A60"/>
<path d="M87.0775 21.5165V1.35648H91.3975V7.91648C91.6855 7.69248 92.0055 7.46848 92.3895 7.27648C93.0295 6.92448 93.9575 6.63648 95.0775 6.63648C98.7575 6.63648 101.958 9.80448 101.958 14.1565C101.958 18.5085 98.7575 21.6765 95.0775 21.6765C93.7975 21.6765 92.7735 21.2925 92.0375 20.8765C91.6215 20.6525 91.2375 20.3645 90.9175 20.0765L90.2775 21.5165H87.0775ZM94.4375 17.6765C96.2295 17.6765 97.6375 16.2365 97.6375 14.1565C97.6375 12.0765 96.2295 10.6365 94.4375 10.6365C92.6455 10.6365 91.2375 12.0765 91.2375 14.1565C91.2375 16.2365 92.6455 17.6765 94.4375 17.6765Z" fill="#0A0A60"/>
</svg>
