<svg width="102" height="23" viewBox="0 0 102 23" fill="none" xmlns="http://www.w3.org/2000/svg">
<path d="M16.48 21.9794L15.68 20.0594C15.2 20.4754 14.688 20.8274 14.112 21.1154C13.12 21.6274 11.712 22.1394 9.92 22.1394C4.448 22.1394 0 17.6594 0 11.8994C0 6.13937 4.448 1.65937 9.92 1.65937C14.72 1.65937 18.08 4.98738 19.04 8.69938L14.24 9.01937C13.728 7.57938 12.32 6.13937 9.92 6.13937C7.008 6.13937 4.64 8.57137 4.64 11.8994C4.64 15.2274 7.008 17.6594 9.92 17.6594C12.512 17.6594 13.888 16.2194 14.4 14.9394H9.92V11.0994H19.68V21.9794H16.48Z" fill="white"/>
<path d="M22.89 21.9794V7.25938H27.21V21.9794H22.89ZM22.73 3.25937C22.73 1.97938 23.85 0.859375 25.13 0.859375C26.41 0.859375 27.53 1.97938 27.53 3.25937C27.53 4.53938 26.41 5.65937 25.13 5.65937C23.85 5.65937 22.73 4.53938 22.73 3.25937Z" fill="white"/>
<path d="M31.3813 21.9794V11.8994H29.4613V7.89937H31.3813V7.09937C31.3813 3.54737 33.3013 1.65937 36.6613 1.65937C37.2692 1.65937 37.7812 1.72338 38.1653 1.81937L38.7412 1.97938V5.81938L38.4212 5.75537C38.1973 5.72338 37.9733 5.65937 37.6213 5.65937C36.5013 5.65937 35.7012 6.45938 35.7012 7.73938V7.89937H38.7412V11.8994H35.7012V21.9794H31.3813Z" fill="white"/>
<path d="M42.42 16.6994V11.2594H40.18V7.57938H41.3C42.484 7.57938 43.06 7.00338 43.06 5.81938V3.73937H46.74V7.25938H49.78V11.2594H46.74V16.0594C46.74 17.3394 47.54 18.1394 48.66 18.1394C49.012 18.1394 49.236 18.1074 49.46 18.0754L49.78 17.9794V21.8194C49.62 21.8834 49.428 21.9474 49.204 21.9794C48.788 22.0754 48.276 22.1394 47.7 22.1394C44.34 22.1394 42.42 20.2514 42.42 16.6994Z" fill="white"/>
<path d="M52.8275 21.9794V1.81937H57.1475V8.69938C57.4355 8.41138 57.7555 8.12337 58.1395 7.89937C58.8115 7.51538 59.8675 7.09937 61.3075 7.09937C64.5075 7.09937 66.9075 9.49938 66.9075 13.3394V21.9794H62.5875V14.1394C62.5875 12.2194 61.4995 11.0994 59.8675 11.0994C58.2355 11.0994 57.1475 12.2194 57.1475 14.1394V21.9794H52.8275Z" fill="white"/>
<path d="M69.7925 15.8994V7.25938H74.1125V15.0994C74.1125 17.0194 75.2005 18.1394 76.8325 18.1394C78.4645 18.1394 79.5525 17.0194 79.5525 15.0994V7.25938H83.8725V21.9794H80.6725L80.0325 20.5394C79.6805 20.8274 79.2645 21.1154 78.8165 21.3394C78.0485 21.7554 76.9925 22.1394 75.7125 22.1394C72.2245 22.1394 69.7925 19.7394 69.7925 15.8994Z" fill="white"/>
<path d="M87.0775 21.9794V1.81937H91.3975V8.37938C91.6855 8.15538 92.0055 7.93138 92.3895 7.73938C93.0295 7.38737 93.9575 7.09937 95.0775 7.09937C98.7575 7.09937 101.958 10.2674 101.958 14.6194C101.958 18.9714 98.7575 22.1394 95.0775 22.1394C93.7975 22.1394 92.7735 21.7554 92.0375 21.3394C91.6215 21.1154 91.2375 20.8274 90.9175 20.5394L90.2775 21.9794H87.0775ZM94.4375 18.1394C96.2295 18.1394 97.6375 16.6994 97.6375 14.6194C97.6375 12.5394 96.2295 11.0994 94.4375 11.0994C92.6455 11.0994 91.2375 12.5394 91.2375 14.6194C91.2375 16.6994 92.6455 18.1394 94.4375 18.1394Z" fill="white"/>
</svg>
