<svg width="21" height="21" viewBox="0 0 21 21" fill="none" xmlns="http://www.w3.org/2000/svg">
<path d="M4.26807 9.31003C3.57957 9.31003 3.02051 8.75096 3.02051 8.06246V4.31977C3.02051 3.63127 3.57957 3.07221 4.26807 3.07221H8.01076C8.69926 3.07221 9.25832 3.63127 9.25832 4.31977V8.06246C9.25832 8.75096 8.69926 9.31003 8.01076 9.31003H4.26807ZM13.001 9.31003C12.3125 9.31003 11.7535 8.75096 11.7535 8.06246V4.31977C11.7535 3.63127 12.3125 3.07221 13.001 3.07221H16.7437C17.4322 3.07221 17.9913 3.63127 17.9913 4.31977V8.06246C17.9913 8.75096 17.4322 9.31003 16.7437 9.31003H13.001ZM3.02051 16.7954V13.0527C3.02051 12.3642 3.57957 11.8052 4.26807 11.8052H8.01076C8.69926 11.8052 9.25832 12.3642 9.25832 13.0527V16.7954C9.25832 17.4839 8.69926 18.043 8.01076 18.043H4.26807C3.57957 18.043 3.02051 17.4839 3.02051 16.7954ZM11.7535 16.7954V13.0527C11.7535 12.3642 12.3125 11.8052 13.001 11.8052H16.7437C17.4322 11.8052 17.9913 12.3642 17.9913 13.0527V16.7954C17.9913 17.4839 17.4322 18.043 16.7437 18.043H13.001C12.3125 18.043 11.7535 17.4839 11.7535 16.7954Z" fill="#0A0A60"/>
</svg>
