<svg width="16" height="17" viewBox="0 0 16 17" fill="none" xmlns="http://www.w3.org/2000/svg">
<path d="M12.6665 7.4058H8.6665V3.4058C8.6665 3.22899 8.59627 3.05942 8.47124 2.9344C8.34622 2.80937 8.17665 2.73914 7.99984 2.73914C7.82303 2.73914 7.65346 2.80937 7.52843 2.9344C7.40341 3.05942 7.33317 3.22899 7.33317 3.4058V7.4058H3.33317C3.15636 7.4058 2.98679 7.47604 2.86177 7.60106C2.73674 7.72609 2.6665 7.89566 2.6665 8.07247C2.6665 8.24928 2.73674 8.41885 2.86177 8.54387C2.98679 8.6689 3.15636 8.73914 3.33317 8.73914H7.33317V12.7391C7.33317 12.9159 7.40341 13.0855 7.52843 13.2105C7.65346 13.3356 7.82303 13.4058 7.99984 13.4058C8.17665 13.4058 8.34622 13.3356 8.47124 13.2105C8.59627 13.0855 8.6665 12.9159 8.6665 12.7391V8.73914H12.6665C12.8433 8.73914 13.0129 8.6689 13.1379 8.54387C13.2629 8.41885 13.3332 8.24928 13.3332 8.07247C13.3332 7.89566 13.2629 7.72609 13.1379 7.60106C13.0129 7.47604 12.8433 7.4058 12.6665 7.4058Z" fill="#0A0A60"/>
</svg>
