<svg width="14" height="22" viewBox="0 0 14 22" fill="none" xmlns="http://www.w3.org/2000/svg">
<path d="M7.43729 5.33594C7.19584 5.33594 6.99979 5.53199 6.99979 5.77344V14.3424L5.12127 12.4645C4.95064 12.2938 4.67311 12.2938 4.50248 12.4645C4.33186 12.6351 4.33186 12.9126 4.50248 13.0832L7.12748 15.7082C7.1294 15.7091 7.13021 15.7091 7.13103 15.7099C7.17123 15.7493 7.21772 15.7807 7.27022 15.8018C7.37686 15.8463 7.49771 15.8463 7.60436 15.8018C7.65768 15.7799 7.7058 15.7484 7.74627 15.7082L10.3713 13.0832C10.5419 12.9126 10.5419 12.6351 10.3713 12.4645C10.2006 12.2938 9.92311 12.2938 9.75248 12.4645L7.87478 14.3424V5.77344C7.87478 5.53199 7.67873 5.33594 7.43729 5.33594Z" fill="#0A0A60"/>
</svg>
