<svg width="31" height="31" viewBox="0 0 31 31" fill="none" xmlns="http://www.w3.org/2000/svg">
<g clip-path="url(#clip0_4002_1609)">
<path d="M6.15308 29.9775C5.12033 29.9775 4.28174 29.1389 4.28174 28.1062V7.5214C4.28174 6.48865 5.12033 5.65005 6.15308 5.65005H9.90513C9.95016 2.54187 12.439 0.0360184 15.5098 0.0360184C18.5806 0.0360184 21.0695 2.54187 21.1145 5.65005H24.8665C25.8993 5.65005 26.7379 6.48865 26.7379 7.5214V28.1062C26.7379 29.1389 25.8993 29.9775 24.8665 29.9775H6.15308ZM24.8665 7.5214H6.15308V28.1062H24.8665V7.5214ZM15.5098 1.90736C13.4759 1.90736 11.8215 3.57871 11.7765 5.65005H19.2431C19.1981 3.57871 17.5437 1.90736 15.5098 1.90736ZM12.7028 11.2641C12.1864 11.2641 11.7671 10.8448 11.7671 10.3284C11.7671 9.81204 12.1864 9.39274 12.7028 9.39274H18.3168C18.8332 9.39274 19.2525 9.81204 19.2525 10.3284C19.2525 10.8448 18.8332 11.2641 18.3168 11.2641H12.7028Z" fill="#0A0A60"/>
</g>
<defs>
<clipPath id="clip0_4002_1609">
<rect width="30.98" height="30" fill="white" transform="matrix(1 0 0 -1 0.0200195 30.0361)"/>
</clipPath>
</defs>
</svg>
