<svg width="14" height="22" viewBox="0 0 14 22" fill="none" xmlns="http://www.w3.org/2000/svg">
<path d="M7.43729 15.8086C7.19584 15.8086 6.99979 15.6125 6.99979 15.3711V6.80211L5.12127 8.68008C4.95064 8.8507 4.67311 8.8507 4.50248 8.68008C4.33186 8.50945 4.33186 8.23191 4.50248 8.06129L7.12748 5.43629C7.1294 5.43547 7.13021 5.43547 7.13103 5.43465C7.17123 5.39527 7.21772 5.36383 7.27022 5.34277C7.37686 5.2982 7.49771 5.2982 7.60436 5.34277C7.65768 5.36465 7.7058 5.39609 7.74627 5.43629L10.3713 8.06129C10.5419 8.23191 10.5419 8.50945 10.3713 8.68008C10.2006 8.8507 9.92311 8.8507 9.75248 8.68008L7.87478 6.80211V15.3711C7.87478 15.6125 7.67873 15.8086 7.43729 15.8086Z" fill="#0A0A60"/>
</svg>
