<svg width="100" height="15" viewBox="0 0 100 15" fill="none" xmlns="http://www.w3.org/2000/svg">
<g clip-path="url(#clip0_10002_412)">
<g clip-path="url(#clip1_10002_412)">
<path d="M12.1547 5.41093L16.9385 6.10601L13.4767 9.48048L14.2943 14.2451L10.0151 11.9956L5.736 14.2451L6.55335 9.48048L3.09155 6.10601L7.87557 5.41093L10.0151 1.07584L12.1547 5.41093Z" fill="#0A0A60"/>
<path d="M32.1156 5.41093L36.8996 6.10601L33.4378 9.48048L34.2552 14.2451L29.976 11.9956L25.6969 14.2451L26.5145 9.48048L23.0527 6.10601L27.8365 5.41093L29.976 1.07584L32.1156 5.41093Z" fill="#0A0A60"/>
<path d="M52.0766 5.41093L56.8606 6.10601L53.3988 9.48048L54.2161 14.2451L49.937 11.9956L45.6578 14.2451L46.4755 9.48048L43.0137 6.10601L47.7974 5.41093L49.937 1.07584L52.0766 5.41093Z" fill="#0A0A60"/>
<path d="M72.0377 5.41093L76.8218 6.10601L73.36 9.48048L74.1773 14.2451L69.8982 11.9956L65.619 14.2451L66.4364 9.48048L62.9749 6.10601L67.7586 5.41093L69.8982 1.07584L72.0377 5.41093Z" fill="#0A0A60"/>
<path d="M91.9987 5.41093L96.7827 6.10601L93.3209 9.48048L94.1383 14.2451L89.8591 11.9956L85.58 14.2451L86.3973 9.48048L82.9355 6.10601L87.7196 5.41093L89.8591 1.07584L91.9987 5.41093Z" fill="#0A0A60"/>
</g>
</g>
<g clip-path="url(#clip2_10002_412)">
<path d="M18.0135 5.92535C18.1158 6.24137 18.0301 6.58906 17.7927 6.82048L15.0689 9.47529L15.7116 13.2242C15.7675 13.5517 15.633 13.8827 15.3641 14.0784C15.2121 14.1892 15.0312 14.2451 14.8505 14.2451C14.7116 14.2451 14.5719 14.2118 14.4445 14.1447L11.0779 12.3746L7.71136 14.1447C7.58391 14.2118 7.44418 14.2451 7.30527 14.2451C7.12352 14.2451 6.94368 14.1892 6.79276 14.0784C6.52368 13.8827 6.38913 13.5517 6.44508 13.2242L7.08777 9.47529L4.36391 6.82048C4.12566 6.58796 4.03997 6.24137 4.14313 5.92535C4.2452 5.60906 4.51865 5.37845 4.84777 5.33042L8.61167 4.78379L10.2947 1.37358C10.442 1.07502 10.7452 0.886442 11.0779 0.886442C11.4106 0.886442 11.7138 1.07502 11.8611 1.37358L13.545 4.78379L17.3089 5.33042C17.6372 5.37845 17.9106 5.60906 18.0135 5.92535ZM14.1301 9.17046L17.1822 6.19498L12.9642 5.58204L11.0779 1.75974L9.19159 5.58204L4.97358 6.19498L8.02574 9.17046L7.30527 13.3718L11.0779 11.3886L14.8505 13.3718L14.1301 9.17046Z" fill="#0A0A60"/>
<path d="M37.9747 5.92535C38.077 6.24137 37.9913 6.58906 37.7539 6.82048L35.03 9.47529L35.6727 13.2242C35.7287 13.5517 35.5941 13.8827 35.3251 14.0784C35.1733 14.1892 34.9924 14.2451 34.8117 14.2451C34.6728 14.2451 34.5331 14.2118 34.4056 14.1447L31.0391 12.3746L27.6725 14.1447C27.5451 14.2118 27.4054 14.2451 27.2665 14.2451C27.0847 14.2451 26.9049 14.1892 26.7537 14.0784C26.4849 13.8827 26.3503 13.5517 26.4063 13.2242L27.0489 9.47529L24.3251 6.82048C24.0868 6.58796 24.0012 6.24137 24.1043 5.92535C24.2064 5.60906 24.4798 5.37845 24.809 5.33042L28.5728 4.78379L30.2556 1.37358C30.4032 1.07502 30.7064 0.886442 31.0391 0.886442C31.3718 0.886442 31.6747 1.07502 31.8223 1.37358L33.5061 4.78379L37.27 5.33042C37.5983 5.37845 37.8718 5.60906 37.9747 5.92535ZM34.0913 9.17046L37.1434 6.19498L32.9254 5.58204L31.0391 1.75974L29.1528 5.58204L24.9348 6.19498L27.9869 9.17046L27.2665 13.3718L31.0391 11.3886L34.8117 13.3718L34.0913 9.17046Z" fill="#0A0A60"/>
<path d="M57.9356 5.92535C58.038 6.24137 57.9523 6.58906 57.7148 6.82048L54.991 9.47529L55.6337 13.2242C55.6896 13.5517 55.5551 13.8827 55.286 14.0784C55.1343 14.1892 54.9533 14.2451 54.7727 14.2451C54.6337 14.2451 54.494 14.2118 54.3666 14.1447L51 12.3746L47.6335 14.1447C47.506 14.2118 47.3663 14.2451 47.2274 14.2451C47.0456 14.2451 46.8658 14.1892 46.7146 14.0784C46.4458 13.8827 46.3113 13.5517 46.3672 13.2242L47.0099 9.47529L44.286 6.82048C44.0478 6.58796 43.9621 6.24137 44.0652 5.92535C44.1673 5.60906 44.4408 5.37845 44.7699 5.33042L48.5338 4.78379L50.2165 1.37358C50.3642 1.07502 50.6674 0.886442 51 0.886442C51.3327 0.886442 51.6356 1.07502 51.7833 1.37358L53.4671 4.78379L57.231 5.33042C57.5593 5.37845 57.8327 5.60906 57.9356 5.92535ZM54.0522 9.17046L57.1044 6.19498L52.8863 5.58204L51 1.75974L49.1137 5.58204L44.8957 6.19498L47.9479 9.17046L47.2274 13.3718L51 11.3886L54.7727 13.3718L54.0522 9.17046Z" fill="#0A0A60"/>
<path d="M77.8967 5.92535C77.9988 6.24137 77.9134 6.58906 77.6757 6.82048L74.9521 9.47529L75.5948 13.2242C75.6507 13.5517 75.5162 13.8827 75.2471 14.0784C75.0951 14.1892 74.9144 14.2451 74.7337 14.2451C74.5948 14.2451 74.4551 14.2118 74.3277 14.1447L70.9611 12.3746L67.5946 14.1447C67.4668 14.2118 67.3271 14.2451 67.1885 14.2451C67.0067 14.2451 66.8269 14.1892 66.6757 14.0784C66.4069 13.8827 66.2723 13.5517 66.3283 13.2242L66.971 9.47529L64.2471 6.82048C64.0086 6.58796 63.9232 6.24137 64.0261 5.92535C64.1284 5.60906 64.4016 5.37845 64.731 5.33042L68.4949 4.78379L70.1776 1.37358C70.3252 1.07502 70.6282 0.886442 70.9611 0.886442C71.2938 0.886442 71.5967 1.07502 71.7443 1.37358L73.4282 4.78379L77.1921 5.33042C77.5204 5.37845 77.7935 5.60906 77.8967 5.92535ZM74.0133 9.17046L77.0654 6.19498L72.8474 5.58204L70.9611 1.75974L69.0748 5.58204L64.8568 6.19498L67.9089 9.17046L67.1885 13.3718L70.9611 11.3886L74.7337 13.3718L74.0133 9.17046Z" fill="#0A0A60"/>
<path d="M97.8579 5.92535C97.96 6.24137 97.8745 6.58906 97.6368 6.82048L94.913 9.47529L95.5559 13.2242C95.6116 13.5517 95.4773 13.8827 95.2083 14.0784C95.0562 14.1892 94.8756 14.2451 94.6946 14.2451C94.556 14.2451 94.4163 14.2118 94.2886 14.1447L90.922 12.3746L87.5555 14.1447C87.428 14.2118 87.2883 14.2451 87.1494 14.2451C86.9679 14.2451 86.7881 14.1892 86.6369 14.0784C86.3678 13.8827 86.2335 13.5517 86.2892 13.2242L86.9322 9.47529L84.2083 6.82048C83.9698 6.58796 83.8844 6.24137 83.9872 5.92535C84.0896 5.60906 84.3628 5.37845 84.6922 5.33042L88.4561 4.78379L90.1388 1.37358C90.2864 1.07502 90.5893 0.886442 90.922 0.886442C91.255 0.886442 91.5579 1.07502 91.7055 1.37358L93.3891 4.78379L97.153 5.33042C97.4816 5.37845 97.7547 5.60906 97.8579 5.92535ZM93.9742 9.17046L97.0263 6.19498L92.8083 5.58204L90.922 1.75974L89.0357 5.58204L84.8177 6.19498L87.8699 9.17046L87.1494 13.3718L90.922 11.3886L94.6946 13.3718L93.9742 9.17046Z" fill="#0A0A60"/>
</g>
<defs>
<clipPath id="clip0_10002_412">
<rect width="98" height="14" fill="white" transform="translate(0 0.272461)"/>
</clipPath>
<clipPath id="clip1_10002_412">
<rect width="96" height="14" fill="white" transform="matrix(1 0 0 -1 2 14.2725)"/>
</clipPath>
<clipPath id="clip2_10002_412">
<rect width="98" height="14" fill="white" transform="matrix(1 0 0 -1 2 14.2725)"/>
</clipPath>
</defs>
</svg>
