<svg width="101" height="15" viewBox="0 0 101 15" fill="none" xmlns="http://www.w3.org/2000/svg">
<g clip-path="url(#clip0_2005_7467)">
<g clip-path="url(#clip1_2005_7467)">
<path d="M12.655 5.56132L17.4387 6.2564L13.9769 9.63087L14.7945 14.3955L10.5154 12.146L6.23624 14.3955L7.05359 9.63087L3.5918 6.2564L8.37581 5.56132L10.5154 1.22623L12.655 5.56132Z" fill="#F8D21C"/>
<path d="M32.6156 5.56132L37.3996 6.2564L33.9378 9.63087L34.7552 14.3955L30.476 12.146L26.1969 14.3955L27.0145 9.63087L23.5527 6.2564L28.3365 5.56132L30.476 1.22623L32.6156 5.56132Z" fill="#F8D21C"/>
<path d="M52.5766 5.56132L57.3606 6.2564L53.8988 9.63087L54.7161 14.3955L50.437 12.146L46.1578 14.3955L46.9755 9.63087L43.5137 6.2564L48.2974 5.56132L50.437 1.22623L52.5766 5.56132Z" fill="#F8D21C"/>
<path d="M72.5375 5.56132L77.3215 6.2564L73.8597 9.63087L74.6771 14.3955L70.3979 12.146L66.1188 14.3955L66.9361 9.63087L63.4746 6.2564L68.2584 5.56132L70.3979 1.22623L72.5375 5.56132Z" fill="#F8D21C"/>
<path d="M92.4987 5.56132L97.2827 6.2564L93.8209 9.63087L94.6383 14.3955L90.3591 12.146L86.08 14.3955L86.8973 9.63087L83.4355 6.2564L88.2196 5.56132L90.3591 1.22623L92.4987 5.56132Z" fill="#F8D21C"/>
</g>
</g>
<g clip-path="url(#clip2_2005_7467)">
<path d="M18.514 6.07574C18.6163 6.39177 18.5306 6.73945 18.2932 6.97087L15.5693 9.62568L16.212 13.3746C16.268 13.7021 16.1334 14.0331 15.8646 14.2288C15.7126 14.3396 15.5317 14.3955 15.351 14.3955C15.2121 14.3955 15.0724 14.3622 14.9449 14.2951L11.5784 12.525L8.21184 14.2951C8.0844 14.3622 7.94467 14.3955 7.80576 14.3955C7.62401 14.3955 7.44416 14.3396 7.29325 14.2288C7.02416 14.0331 6.88962 13.7021 6.94557 13.3746L7.58826 9.62568L4.8644 6.97087C4.62615 6.73835 4.54046 6.39177 4.64362 6.07574C4.74568 5.75945 5.01913 5.52884 5.34826 5.48081L9.11216 4.93418L10.7952 1.52397C10.9425 1.22541 11.2457 1.03683 11.5784 1.03683C11.9111 1.03683 12.2143 1.22541 12.3616 1.52397L14.0454 4.93418L17.8093 5.48081C18.1377 5.52884 18.4111 5.75945 18.514 6.07574ZM14.6306 9.32085L17.6827 6.34537L13.4647 5.73243L11.5784 1.91013L9.69208 5.73243L5.47407 6.34537L8.52623 9.32085L7.80576 13.5222L11.5784 11.539L15.351 13.5222L14.6306 9.32085Z" fill="#F8D21C"/>
<path d="M38.4749 6.07574C38.5773 6.39177 38.4916 6.73945 38.2541 6.97087L35.5303 9.62568L36.173 13.3746C36.2289 13.7021 36.0944 14.0331 35.8253 14.2288C35.6736 14.3396 35.4926 14.3955 35.312 14.3955C35.1731 14.3955 35.0333 14.3622 34.9059 14.2951L31.5393 12.525L28.1728 14.2951C28.0453 14.3622 27.9056 14.3955 27.7667 14.3955C27.5849 14.3955 27.4051 14.3396 27.2539 14.2288C26.9851 14.0331 26.8506 13.7021 26.9065 13.3746L27.5492 9.62568L24.8253 6.97087C24.5871 6.73835 24.5014 6.39177 24.6046 6.07574C24.7066 5.75945 24.9801 5.52884 25.3092 5.48081L29.0731 4.93418L30.7558 1.52397C30.9035 1.22541 31.2067 1.03683 31.5393 1.03683C31.872 1.03683 32.1749 1.22541 32.3226 1.52397L34.0064 4.93418L37.7703 5.48081C38.0986 5.52884 38.372 5.75945 38.4749 6.07574ZM34.5915 9.32085L37.6437 6.34537L33.4256 5.73243L31.5393 1.91013L29.653 5.73243L25.435 6.34537L28.4872 9.32085L27.7667 13.5222L31.5393 11.539L35.312 13.5222L34.5915 9.32085Z" fill="#F8D21C"/>
<path d="M58.4359 6.07574C58.5382 6.39177 58.4525 6.73945 58.2151 6.97087L55.4912 9.62568L56.1339 13.3746C56.1899 13.7021 56.0553 14.0331 55.7862 14.2288C55.6345 14.3396 55.4536 14.3955 55.2729 14.3955C55.134 14.3955 54.9943 14.3622 54.8668 14.2951L51.5003 12.525L48.1337 14.2951C48.0063 14.3622 47.8665 14.3955 47.7276 14.3955C47.5459 14.3955 47.366 14.3396 47.2148 14.2288C46.946 14.0331 46.8115 13.7021 46.8674 13.3746L47.5101 9.62568L44.7863 6.97087C44.548 6.73835 44.4623 6.39177 44.5655 6.07574C44.6676 5.75945 44.941 5.52884 45.2701 5.48081L49.034 4.93418L50.7168 1.52397C50.8644 1.22541 51.1676 1.03683 51.5003 1.03683C51.8329 1.03683 52.1359 1.22541 52.2835 1.52397L53.9673 4.93418L57.7312 5.48081C58.0595 5.52884 58.333 5.75945 58.4359 6.07574ZM54.5524 9.32085L57.6046 6.34537L53.3866 5.73243L51.5003 1.91013L49.614 5.73243L45.3959 6.34537L48.4481 9.32085L47.7276 13.5222L51.5003 11.539L55.2729 13.5222L54.5524 9.32085Z" fill="#F8D21C"/>
<path d="M78.3969 6.07574C78.499 6.39177 78.4136 6.73945 78.1759 6.97087L75.4523 9.62568L76.095 13.3746C76.1509 13.7021 76.0164 14.0331 75.7473 14.2288C75.5953 14.3396 75.4147 14.3955 75.234 14.3955C75.0951 14.3955 74.9553 14.3622 74.8279 14.2951L71.4614 12.525L68.0948 14.2951C67.9671 14.3622 67.8274 14.3955 67.6887 14.3955C67.507 14.3955 67.3271 14.3396 67.1759 14.2288C66.9071 14.0331 66.7726 13.7021 66.8285 13.3746L67.4712 9.62568L64.7474 6.97087C64.5088 6.73835 64.4234 6.39177 64.5263 6.07574C64.6286 5.75945 64.9018 5.52884 65.2312 5.48081L68.9951 4.93418L70.6778 1.52397C70.8255 1.22541 71.1284 1.03683 71.4614 1.03683C71.794 1.03683 72.097 1.22541 72.2446 1.52397L73.9284 4.93418L77.6923 5.48081C78.0206 5.52884 78.2938 5.75945 78.3969 6.07574ZM74.5135 9.32085L77.5657 6.34537L73.3477 5.73243L71.4614 1.91013L69.575 5.73243L65.357 6.34537L68.4092 9.32085L67.6887 13.5222L71.4614 11.539L75.234 13.5222L74.5135 9.32085Z" fill="#F8D21C"/>
<path d="M98.3579 6.07574C98.46 6.39177 98.3745 6.73945 98.1368 6.97087L95.413 9.62568L96.0559 13.3746C96.1116 13.7021 95.9773 14.0331 95.7083 14.2288C95.5562 14.3396 95.3756 14.3955 95.1946 14.3955C95.056 14.3955 94.9163 14.3622 94.7886 14.2951L91.422 12.525L88.0555 14.2951C87.928 14.3622 87.7883 14.3955 87.6494 14.3955C87.4679 14.3955 87.2881 14.3396 87.1369 14.2288C86.8678 14.0331 86.7335 13.7021 86.7892 13.3746L87.4322 9.62568L84.7083 6.97087C84.4698 6.73835 84.3844 6.39177 84.4872 6.07574C84.5896 5.75945 84.8628 5.52884 85.1922 5.48081L88.9561 4.93418L90.6388 1.52397C90.7864 1.22541 91.0893 1.03683 91.422 1.03683C91.755 1.03683 92.0579 1.22541 92.2055 1.52397L93.8891 4.93418L97.653 5.48081C97.9816 5.52884 98.2547 5.75945 98.3579 6.07574ZM94.4742 9.32085L97.5263 6.34537L93.3083 5.73243L91.422 1.91013L89.5357 5.73243L85.3177 6.34537L88.3699 9.32085L87.6494 13.5222L91.422 11.539L95.1946 13.5222L94.4742 9.32085Z" fill="#F8D21C"/>
</g>
<defs>
<clipPath id="clip0_2005_7467">
<rect width="98" height="14" fill="white" transform="translate(0.5 0.422852)"/>
</clipPath>
<clipPath id="clip1_2005_7467">
<rect width="96" height="14" fill="white" transform="matrix(1 0 0 -1 2.5 14.4229)"/>
</clipPath>
<clipPath id="clip2_2005_7467">
<rect width="98" height="14" fill="white" transform="matrix(1 0 0 -1 2.5 14.4229)"/>
</clipPath>
</defs>
</svg>
