<svg width="37" height="35" viewBox="0 0 37 35" fill="none" xmlns="http://www.w3.org/2000/svg">
<path fill-rule="evenodd" clip-rule="evenodd" d="M17.4825 1.36063C16.0537 3.05863 15.0291 6.45225 15.3216 8.51836C15.6859 11.092 17.4583 14.6481 18.377 14.6481C18.866 14.6481 20.2348 12.8415 20.8928 11.3276C21.3633 10.2448 21.4608 9.61983 21.4667 7.65121C21.4734 5.45157 21.4169 5.15889 20.6888 3.61909C19.89 1.92963 18.8914 0.654297 18.3672 0.654297C18.2076 0.654297 17.8094 0.972122 17.4825 1.36063ZM17.5411 3.74717C16.8156 5.15817 16.7523 5.4575 16.7416 7.53262C16.7311 9.59256 16.7959 9.92461 17.4965 11.4037C17.9351 12.3299 18.3679 12.9565 18.5091 12.8692C18.8357 12.6674 19.8195 10.6822 20.037 9.78586C20.5479 7.68157 19.9111 4.16841 18.7614 2.74886L18.329 2.21473L17.5411 3.74717ZM6.97863 8.38624C6.74002 9.33711 7.20348 11.7701 7.92262 13.3408C9.11257 15.9398 12.4085 18.4708 15.0803 18.837C16.0409 18.9687 16.1235 18.9364 16.2648 18.3726C16.7636 16.3853 15.0661 12.1039 13.0783 10.3352C11.811 9.20785 9.43087 8.01671 8.08438 7.83621C7.21107 7.71905 7.13683 7.75581 6.97863 8.38624ZM27.0076 8.32837C23.0782 9.96114 20.4962 13.6761 20.6907 17.4172C20.7751 19.0412 20.9537 19.1368 22.8664 18.5806C26.8859 17.4123 30.0502 13.1925 29.8469 9.27212C29.7772 7.92397 29.757 7.88697 29.0637 7.8291C28.6724 7.79637 27.7471 8.02122 27.0076 8.32837ZM8.38655 10.3961C8.7447 13.42 11.3442 16.4097 14.4518 17.3722C15.0139 17.5463 15.018 17.5356 14.8543 16.3027C14.4513 13.2651 11.8229 10.2258 8.80755 9.31078C8.244 9.13977 8.23926 9.15187 8.38655 10.3961ZM27.0792 9.68601C24.6469 10.7654 22.8493 12.9492 22.1275 15.701C21.9067 16.5435 21.7846 17.2911 21.8562 17.3627C22.1157 17.6222 24.1102 16.7572 25.2688 15.8827C26.9979 14.5774 28.0208 12.7537 28.5887 9.96375C28.7746 9.05083 28.5879 9.01644 27.0792 9.68601ZM0.0870246 17.3949C-0.177909 18.0859 0.197314 21.1545 0.737144 22.7124C1.74541 25.6212 3.14029 27.7546 5.36792 29.7961C7.29385 31.561 9.17068 32.6352 11.9865 33.5841C13.1608 33.98 14.3 34.3723 14.5182 34.456C14.7846 34.5583 15.0071 34.4363 15.1949 34.0853C15.5457 33.4297 15.4383 33.3557 12.9353 32.5296C9.71834 31.4682 7.90863 30.3957 5.79342 28.2973C2.91473 25.4414 1.64556 22.493 0.964842 17.0793C0.934008 16.834 0.201347 17.0975 0.0870246 17.3949ZM2.47926 17.2894C2.04948 17.9848 2.6377 21.4574 3.51029 23.3767C4.40519 25.3451 6.83347 28.4048 7.50043 28.4048C7.65294 28.4048 7.91171 28.2432 8.0756 28.0459C8.32512 27.7452 8.18328 27.4862 7.19968 26.4449C5.13927 24.264 4.19196 22.2484 3.71902 19.0384C3.50935 17.6155 3.34308 17.1248 3.05087 17.0686C2.83693 17.0273 2.57982 17.1267 2.47926 17.2894ZM4.78136 17.3409C4.33498 17.8788 4.87718 20.6586 5.81833 22.6569C6.51921 24.145 8.77672 26.9983 9.23401 26.9741C9.31299 26.97 9.58053 26.8128 9.82886 26.6249C10.2594 26.2991 10.2269 26.2284 9.12324 25.0906C7.19186 23.0997 6.32021 21.2349 5.96515 18.3332C5.81192 17.0816 5.33115 16.6784 4.78136 17.3409ZM7.1449 17.3508C6.73433 17.8456 7.41789 20.7971 8.30045 22.3395C9.14032 23.8077 10.6887 25.3102 12.1068 26.0336C13.1257 26.5536 16.1406 27.2945 16.3569 27.0784C16.6142 26.8211 16.3509 24.5311 15.9245 23.3179C15.4722 22.0307 14.3605 20.2212 13.6698 19.6482C13.217 19.2723 12.5795 19.4729 12.5795 19.9912C12.5795 20.1987 12.8947 20.7622 13.2801 21.244C14.0012 22.1448 14.7784 23.7569 15.0457 24.9063C15.2352 25.721 14.7696 25.7689 13.1992 25.0958C10.8673 24.0961 8.79332 21.3592 8.42094 18.7901C8.18328 17.1509 7.73287 16.6426 7.1449 17.3508ZM28.7696 17.3164C28.6411 17.4796 28.4739 18.1648 28.3982 18.8396C28.2203 20.4224 27.361 22.0957 26.0726 23.3689C25.0024 24.4263 23.0134 25.5586 22.2264 25.5586C21.8325 25.5586 21.7872 25.4383 21.9055 24.709C22.0898 23.5726 22.9309 21.8765 23.8023 20.8842C24.4287 20.1707 24.4712 20.0341 24.1619 19.7248C23.6325 19.1954 23.1194 19.5322 22.0768 21.0936C20.9883 22.7235 20.6679 23.6564 20.476 25.7535L20.3389 27.253L21.2621 27.0974C23.9062 26.6515 25.6675 25.7322 27.3423 23.9234C28.7269 22.4277 29.5497 20.7136 29.8161 18.7689C30.0013 17.4175 29.3749 16.5482 28.7696 17.3164ZM31.1272 17.3046C30.9707 17.4611 30.8426 17.9853 30.8426 18.4694C30.8426 20.604 29.3216 23.7861 27.5254 25.4087C26.6677 26.1835 26.6381 26.2552 27.027 26.6072C27.2545 26.8133 27.5619 26.9817 27.7099 26.9817C28.1781 26.9817 30.4195 24.0774 31.1419 22.5345C32.0074 20.6863 32.4882 17.9298 32.0394 17.389C31.6713 16.9455 31.502 16.9298 31.1272 17.3046ZM33.5133 17.3164C33.3847 17.4796 33.2147 18.2668 33.1352 19.0661C32.8487 21.9474 31.58 24.551 29.4288 26.6717C28.3975 27.6885 28.3721 27.7461 28.813 28.0684C29.0661 28.2534 29.3498 28.4048 29.4435 28.4048C29.8019 28.4048 31.7117 26.1935 32.5698 24.7849C34.0308 22.387 35.069 18.1812 34.3989 17.3738C34.0406 16.9424 33.8195 16.9279 33.5133 17.3164ZM35.8849 17.3164C35.7563 17.4796 35.5889 18.3067 35.5128 19.1546C35.2106 22.5207 33.6917 25.7303 31.1984 28.2712C29.3742 30.1305 27.4068 31.3162 24.5034 32.3064C21.1297 33.4573 21.3408 33.3315 21.6489 34.0078C21.8254 34.3953 22.0388 34.5419 22.2869 34.4465C22.4921 34.3678 23.5136 34.0291 24.5572 33.6937C29.4212 32.1314 32.8546 29.3756 34.9594 25.3449C36.4634 22.4647 37.5075 17.7182 36.7433 17.2344C36.3019 16.9547 36.1596 16.9683 35.8849 17.3164Z" fill="black"/>
</svg>
